<svg width="289" height="56" viewBox="0 0 289 56" fill="none" xmlns="http://www.w3.org/2000/svg">
<g clip-path="url(#clip0_2_225)">
<path d="M4.5481 12.0214C4.5253 11.9023 4.82523 11.7434 4.77348 11.5828C4.727 11.4389 4.43234 11.4389 4.30781 11.4036C3.51063 11.1813 2.70906 10.8565 2.31705 10.0419C1.93819 9.25299 2.32494 8.64671 3.20193 8.56905C3.49221 8.54346 3.786 8.56905 4.07804 8.56375C4.18854 8.56199 4.33412 8.59464 4.37095 8.44109C4.40164 8.31401 4.27974 8.27165 4.19555 8.21781C2.68889 7.26824 1.62686 5.91007 0.834068 4.34804C0.371897 3.43642 0.0219796 2.45596 5.49477e-05 1.40137C-0.00783792 0.997188 0.0737217 0.562114 0.410484 0.352079C1.03314 -0.0362215 1.71105 -0.180069 2.37581 0.323839C3.24753 0.984833 4.10347 1.66965 5.00501 2.28652C6.07756 3.02076 7.29219 3.43201 8.5568 3.70647C10.1056 4.04182 11.6797 4.20861 13.2539 4.17684C14.3519 4.15478 15.442 4.20155 16.5347 4.23597C18.1931 4.28715 19.8129 4.55102 21.3888 5.10258C23.0376 5.67886 24.4942 6.48105 25.7668 7.50299C26.1298 7.79509 30.0245 10.8388 29.465 11.9481C28.7888 13.2887 23.0727 8.89646 15.9682 10.5423C11.7946 11.5095 10.3011 11.7108 7.31236 12.1132C7.31236 12.1132 4.63404 12.4741 4.5481 12.0232V12.0214Z" fill="#F3B526"/>
<path d="M17.5423 41.797C17.7353 35.6283 22.2272 31.7806 26.8875 31.2291C27.2199 31.1894 27.561 31.2044 27.8899 31.1461C28.6599 31.0093 29.2133 31.3623 29.7649 31.8468C31.8205 33.6533 32.9974 35.9602 33.671 38.5768C34.1533 40.453 34.2357 42.3742 34.3708 44.291C34.5173 46.3675 34.5076 48.4714 35.1645 50.4729C35.439 51.3104 35.8897 52.0896 36.2782 52.8874C36.3993 53.1354 36.5931 53.3463 36.7316 53.5872C37.2719 54.5262 36.9895 55.4396 35.9581 55.7617C35.3337 55.9568 34.6365 56.0282 33.9814 55.9903C30.3051 55.7811 27.0015 54.4671 23.9768 52.41C21.5168 50.7368 19.6085 48.5764 18.4474 45.7965C17.8238 44.3024 17.5213 42.7422 17.5415 41.797H17.5423Z" fill="#F3B526"/>
<path d="M8.32171 30.561C5.75829 30.546 3.8412 28.593 3.86224 26.0205C3.88154 23.6881 5.93017 21.7175 8.32171 21.7281C10.6142 21.7387 12.5768 23.854 12.5602 26.2968C12.5435 28.766 10.7448 30.5751 8.32171 30.561Z" fill="#E76423"/>
<path d="M28.2889 20.962C29.4799 22.9186 29.2299 25.3693 27.675 26.9728C26.2315 28.4607 24.0443 28.6539 22.4228 27.4334C22.2956 27.3372 22.1307 27.2455 22.0728 27.1122C21.9746 26.8872 21.8396 26.5783 21.9238 26.4036C22.0044 26.2368 22.3421 26.1909 22.571 26.1035C22.6183 26.085 22.685 26.1176 22.7429 26.1247C23.369 26.2015 23.6242 25.9067 23.4251 25.2942C23.2804 24.8504 23.0717 24.4276 22.9112 23.9881C22.4885 22.8294 22.535 21.676 23.0419 20.5605C23.6286 19.2685 24.8774 18.7602 26.2122 19.2306C27.1164 19.5492 27.7952 20.1449 28.2898 20.9629L28.2889 20.962Z" fill="#F3B526"/>
<path d="M14.8877 16.7772C14.4641 16.779 14.0581 16.9237 13.709 17.1646C13.9809 17.3853 14.1616 17.7303 14.1598 18.1054C14.1572 18.7434 13.6748 19.2615 13.0837 19.2597C12.9241 19.2597 12.7715 19.2191 12.6321 19.1503C12.6321 19.1635 12.6321 19.1759 12.6321 19.1882C12.6409 20.5482 13.7248 21.706 14.9938 21.7104C16.2365 21.7148 17.2529 20.6241 17.2582 19.28C17.2635 17.936 16.1602 16.7711 14.8877 16.7772Z" fill="#38332E"/>
</g>
<path d="M279.434 27.0855V29.8447C279.508 29.9183 279.629 29.9551 279.797 29.9551C279.965 29.9551 280.086 29.8973 280.159 29.7816C280.233 29.666 280.27 29.4663 280.27 29.1825V26.9279C280.27 25.9188 280.228 25.2514 280.144 24.9255C280.06 24.5892 279.902 24.421 279.671 24.421C279.523 24.421 279.397 24.4735 279.292 24.5786C279.387 25.6192 279.434 26.4549 279.434 27.0855ZM273.537 34.0702C271.814 32.4094 270.952 30.16 270.952 27.322C270.952 24.4735 271.761 22.2294 273.38 20.5897C275.009 18.9394 277.143 18.1143 279.781 18.1143C282.419 18.1143 284.553 18.971 286.182 20.6843C287.801 22.3976 288.61 24.6312 288.61 27.3851C288.61 30.1285 287.827 32.3095 286.261 33.9283C284.705 35.547 282.587 36.3563 279.907 36.3563C277.227 36.3563 275.104 35.5943 273.537 34.0702Z" fill="#F3B526"/>
<path d="M269.596 28.0631C269.596 28.8199 269.68 29.4295 269.848 29.892C270.016 30.3545 270.31 30.7171 270.731 30.9799C270.741 31.0324 270.747 31.1323 270.747 31.2795V31.5633C270.747 33.0138 270.326 34.1437 269.485 34.9531C268.655 35.7519 267.578 36.1514 266.253 36.1514C264.939 36.1514 263.872 35.7782 263.053 35.0319C262.096 34.1805 261.618 32.8877 261.618 31.1533C261.618 30.4176 261.649 29.7711 261.712 29.214C261.786 28.6464 261.833 28.2418 261.854 28C261.886 27.7582 261.917 27.5323 261.949 27.322C261.98 27.1118 261.996 26.8017 261.996 26.3918C261.996 25.9819 261.938 25.6876 261.823 25.5089C261.718 25.3302 261.565 25.2408 261.365 25.2408C261.176 25.2408 261.008 25.2829 260.861 25.367L261.066 27.9369C260.877 28.9986 260.782 30.1232 260.782 31.311C260.782 32.4987 261.05 33.5814 261.586 34.5589C260.556 35.6205 259.111 36.1514 257.25 36.1514C256.189 36.1514 255.269 35.8728 254.491 35.3157C253.587 34.6851 253.135 33.8494 253.135 32.8088V25.1778C252.515 24.3054 252.205 23.2332 252.205 21.9614C252.205 20.679 252.515 19.5701 253.135 18.6346H255.942C256.688 18.6346 257.324 18.9132 257.85 19.4703C257.387 19.9012 257.156 20.2586 257.156 20.5424C257.156 20.8682 257.34 21.0311 257.708 21.0311C258.17 20.2323 258.874 19.5701 259.82 19.0446C260.777 18.519 261.86 18.2562 263.068 18.2562C264.887 18.2562 266.364 18.7029 267.499 19.5964C268.928 20.7211 269.643 22.4659 269.643 24.8309L269.596 28.0631Z" fill="#F3B526"/>
<path d="M251.101 28.0631C251.101 28.8199 251.186 29.4295 251.354 29.892C251.522 30.3545 251.816 30.7171 252.237 30.9799C252.247 31.0324 252.252 31.1323 252.252 31.2795V31.5633C252.252 33.0558 251.8 34.2173 250.896 35.0477C250.098 35.7835 249.11 36.1514 247.932 36.1514C247.134 36.1514 246.403 35.9622 245.741 35.5837C245.079 35.2054 244.606 34.6588 244.322 33.944C243.964 33.944 243.786 34.1175 243.786 34.4643C243.786 34.7586 243.97 35.0897 244.338 35.4576C243.654 35.9201 242.624 36.1514 241.247 36.1514C239.303 36.1514 237.747 35.6258 236.58 34.5747C235.424 33.5131 234.846 32.0363 234.846 30.1443C234.846 28.2418 235.461 26.7702 236.691 25.7296C237.815 24.7941 239.271 24.3264 241.058 24.3264C241.668 24.3264 242.256 24.3684 242.824 24.4525C243.202 24.5261 243.407 24.5681 243.439 24.5786C243.47 24.4735 243.486 24.3842 243.486 24.3106C243.486 24.0373 243.255 23.8534 242.792 23.7588C242.33 23.6642 241.726 23.6169 240.979 23.6169C239.392 23.6169 238.036 23.9375 236.911 24.5786C236.396 23.7062 236.139 22.6026 236.139 21.2676C236.139 20.5109 236.234 19.9485 236.423 19.5806C237.18 19.2338 238.141 18.9289 239.308 18.6662C240.475 18.3929 241.705 18.2562 242.997 18.2562C245.667 18.2562 247.685 18.8396 249.052 20.0063C250.418 21.173 251.101 22.8285 251.101 24.9728V28.0631ZM242.919 28.8356C242.477 28.8356 242.256 29.0353 242.256 29.4348C242.256 29.8132 242.514 30.0024 243.029 30.0024C243.386 30.0024 243.649 29.9183 243.817 29.7501C243.985 29.5714 244.07 29.2666 244.07 28.8356C244.07 28.8356 243.686 28.8356 242.919 28.8356Z" fill="#F3B526"/>
<path d="M223.305 25.903H224.282C224.808 25.903 225.071 25.7296 225.071 25.3827C225.071 25.3407 225.06 25.2776 225.039 25.1935H221.507C221.276 24.4578 221.161 23.6379 221.161 22.7339C221.161 21.8195 221.229 21.0784 221.366 20.5108C221.965 20.1325 222.79 19.5543 223.841 18.7765C224.135 18.0618 224.519 16.9266 224.992 15.3709C225.055 15.1607 225.129 14.9557 225.213 14.756C226.032 14.5458 226.968 14.4407 228.019 14.4407C229.07 14.4407 230.106 14.5511 231.125 14.7718V18.6346H233.853C234.462 19.5596 234.767 20.6475 234.767 21.8983C234.767 22.4659 234.688 23.0493 234.531 23.6484C234.373 24.2475 234.147 24.7573 233.853 25.1778H231.598V27.5585C231.598 28.904 232.16 29.5767 233.285 29.5767H233.963C234.184 30.3755 234.294 31.0692 234.294 31.6579C234.294 33.1084 233.837 34.2226 232.922 35.0004C232.019 35.7677 230.699 36.1514 228.965 36.1514C227.241 36.1514 225.864 35.6731 224.834 34.7166C223.815 33.7496 223.305 32.3306 223.305 30.4596V25.903Z" fill="#F3B526"/>
<path d="M213.23 36.3563C210.318 36.3563 208.022 35.547 206.34 33.9283C204.616 32.299 203.754 30.0707 203.754 27.2432C203.754 24.4052 204.642 22.1558 206.419 20.4951C208.059 18.95 210.134 18.1774 212.647 18.1774C215.159 18.1774 217.172 18.8711 218.685 20.2586C220.209 21.6355 220.971 23.3331 220.971 25.3512C220.971 27.1486 220.346 28.5045 219.095 29.419C217.939 30.2809 216.362 30.7119 214.365 30.7119C212.873 30.7119 211.611 30.4018 210.581 29.7816C210.497 29.8447 210.455 29.9603 210.455 30.1285C210.455 30.4438 210.87 30.7329 211.701 30.9957C212.531 31.2795 213.472 31.4214 214.523 31.4214C215.584 31.4214 216.546 31.29 217.408 31.0272C218.281 30.7539 218.98 30.4333 219.505 30.0654C219.757 30.2862 219.957 30.6961 220.104 31.2952C220.262 31.8838 220.341 32.4252 220.341 32.9192C220.341 33.4027 220.293 33.8337 220.199 34.2121C219.379 34.9058 218.538 35.3998 217.676 35.6941C216.457 36.1356 214.975 36.3563 213.23 36.3563ZM213.025 25.6823C213.551 25.6823 213.813 25.4826 213.813 25.0832C213.813 24.7048 213.535 24.5156 212.978 24.5156C212.421 24.5156 212.1 24.8151 212.016 25.4143C212.31 25.593 212.647 25.6823 213.025 25.6823Z" fill="#F3B526"/>
<path d="M194.137 27.9054V28.268C194.137 28.4362 194.142 28.5571 194.152 28.6307C194.257 28.6832 194.373 28.7095 194.499 28.7095C194.804 28.7095 194.956 28.4783 194.956 28.0158C194.956 26.4706 195.041 24.8677 195.209 23.2069C195.387 21.5357 195.577 20.2481 195.776 19.3441C196.628 18.724 197.763 18.4139 199.182 18.4139C200.601 18.4139 201.694 18.6924 202.461 19.2495C203.239 19.7961 203.628 20.4583 203.628 21.2361C203.628 21.562 203.434 22.9074 203.045 25.2724C202.614 27.6794 202.062 30.2126 201.389 32.8719C201.253 33.408 201.006 34.1595 200.648 35.1265C200.301 36.0935 199.928 36.8976 199.529 37.5388C198.278 39.5254 196.733 40.7552 194.893 41.2282C194.031 41.4489 193.164 41.5593 192.292 41.5593C190.6 41.5593 189.291 41.1389 188.366 40.298C187.515 39.5412 187.089 38.6004 187.089 37.4757C187.089 36.3616 187.42 35.3105 188.082 34.3224C188.24 34.2804 188.529 34.2594 188.949 34.2594C189.37 34.2594 189.895 34.3119 190.526 34.417C192.271 34.7429 193.159 34.9058 193.191 34.9058C193.264 34.9163 193.343 34.9321 193.427 34.9531C193.522 34.9636 193.643 34.9689 193.79 34.9689C193.937 34.9689 194.063 34.9268 194.168 34.8427C194.273 34.7586 194.326 34.5905 194.326 34.3382L190.605 33.6287C189.69 33.2503 188.897 32.4567 188.224 31.2479C187.394 29.7554 186.831 27.732 186.537 25.1778C185.843 24.2738 185.496 23.1912 185.496 21.9298C185.496 20.6685 185.812 19.5701 186.442 18.6346H190.495C191.85 18.6346 192.865 19.0235 193.537 19.8014C194.031 20.3795 194.347 21.2256 194.483 22.3398C194.252 24.1687 194.137 26.0239 194.137 27.9054Z" fill="#F3B526"/>
<path d="M184.882 28.0631C184.882 28.8199 184.966 29.4295 185.134 29.892C185.302 30.3545 185.596 30.7171 186.017 30.9799C186.027 31.0324 186.033 31.1323 186.033 31.2795V31.5633C186.033 33.0558 185.581 34.2173 184.677 35.0477C183.878 35.7835 182.89 36.1514 181.712 36.1514C180.914 36.1514 180.183 35.9622 179.521 35.5837C178.859 35.2054 178.386 34.6588 178.102 33.944C177.745 33.944 177.566 34.1175 177.566 34.4643C177.566 34.7586 177.75 35.0897 178.118 35.4576C177.434 35.9201 176.404 36.1514 175.027 36.1514C173.083 36.1514 171.527 35.6258 170.36 34.5747C169.204 33.5131 168.626 32.0363 168.626 30.1443C168.626 28.2418 169.241 26.7702 170.471 25.7296C171.596 24.7941 173.051 24.3264 174.838 24.3264C175.448 24.3264 176.036 24.3684 176.604 24.4525C176.982 24.5261 177.187 24.5681 177.219 24.5786C177.251 24.4735 177.266 24.3842 177.266 24.3106C177.266 24.0373 177.035 23.8534 176.573 23.7588C176.11 23.6642 175.506 23.6169 174.759 23.6169C173.172 23.6169 171.816 23.9375 170.692 24.5786C170.177 23.7062 169.919 22.6026 169.919 21.2676C169.919 20.5109 170.014 19.9485 170.203 19.5806C170.96 19.2338 171.921 18.9289 173.088 18.6662C174.255 18.3929 175.485 18.2562 176.778 18.2562C179.447 18.2562 181.465 18.8396 182.832 20.0063C184.198 21.173 184.882 22.8285 184.882 24.9728V28.0631ZM176.699 28.8356C176.257 28.8356 176.036 29.0353 176.036 29.4348C176.036 29.8132 176.294 30.0024 176.809 30.0024C177.166 30.0024 177.429 29.9183 177.597 29.7501C177.766 29.5714 177.85 29.2666 177.85 28.8356C177.85 28.8356 177.466 28.8356 176.699 28.8356Z" fill="#F3B526"/>
<path d="M159.166 29.5924C159.271 29.5924 159.366 29.5662 159.45 29.5136V28.0788C160.165 27.5953 161.163 27.2012 162.446 26.8963C163.739 26.5915 164.995 26.4391 166.214 26.4391C166.771 27.0067 167.233 27.8581 167.601 28.9933C167.98 30.118 168.179 31.1376 168.201 32.052C167.99 32.4725 167.633 32.9244 167.128 33.408C166.634 33.8915 166.035 34.3382 165.331 34.7481C163.586 35.7782 161.584 36.2932 159.324 36.2932C156.086 36.2932 153.538 35.3525 151.677 33.471C149.754 31.5685 148.792 28.9355 148.792 25.5719C148.792 22.1979 149.843 19.5491 151.945 17.6256C152.87 16.7636 153.947 16.1172 155.177 15.6863C156.407 15.2448 157.7 15.0241 159.056 15.0241C161.705 15.0241 163.875 15.6652 165.567 16.9476C167.26 18.2299 168.106 19.8119 168.106 21.6933C168.106 23.1123 167.67 24.1635 166.797 24.8467C165.925 25.5194 164.742 25.8557 163.25 25.8557C162.43 25.8557 161.605 25.656 160.774 25.2566C159.944 24.8467 159.45 24.463 159.292 24.1056C159.292 23.2437 159.308 22.5658 159.34 22.0717C159.319 22.0612 159.282 22.056 159.229 22.056H159.119C158.961 22.056 158.835 22.1033 158.741 22.1979C158.656 22.282 158.578 22.4659 158.504 22.7497C158.441 23.0335 158.409 23.8061 158.409 25.0674C158.409 28.0841 158.662 29.5924 159.166 29.5924Z" fill="#F3B526"/>
<path d="M139.836 28.0631C139.836 28.8199 139.92 29.4295 140.089 29.892C140.257 30.3545 140.551 30.7171 140.972 30.9799C140.982 31.0324 140.987 31.1323 140.987 31.2795V31.5633C140.987 33.0138 140.567 34.1437 139.726 34.9531C138.896 35.7519 137.818 36.1514 136.494 36.1514C135.18 36.1514 134.113 35.7782 133.293 35.0319C132.337 34.1805 131.858 32.8877 131.858 31.1533C131.858 30.4176 131.89 29.7711 131.953 29.214C132.027 28.6464 132.074 28.2418 132.095 28C132.126 27.7582 132.158 27.5323 132.189 27.322C132.221 27.1118 132.237 26.8017 132.237 26.3918C132.237 25.9819 132.179 25.6876 132.063 25.5089C131.958 25.3302 131.806 25.2408 131.606 25.2408C131.417 25.2408 131.249 25.2829 131.102 25.367L131.307 27.9369C131.117 28.9986 131.023 30.1232 131.023 31.311C131.023 32.4987 131.291 33.5814 131.827 34.5589C130.797 35.6205 129.351 36.1514 127.491 36.1514C126.429 36.1514 125.51 35.8728 124.732 35.3157C123.828 34.6851 123.376 33.8494 123.376 32.8088V25.1778C122.756 24.3054 122.446 23.2332 122.446 21.9614C122.446 20.679 122.756 19.5701 123.376 18.6346H126.182C126.929 18.6346 127.565 18.9132 128.09 19.4703C127.628 19.9012 127.396 20.2586 127.396 20.5424C127.396 20.8682 127.58 21.0311 127.948 21.0311C128.411 20.2323 129.115 19.5701 130.061 19.0446C131.018 18.519 132.1 18.2562 133.309 18.2562C135.127 18.2562 136.604 18.7029 137.739 19.5964C139.169 20.7211 139.884 22.4659 139.884 24.8309L139.836 28.0631Z" fill="#F3B526"/>
<path d="M112.938 27.0855V29.8447C113.012 29.9183 113.133 29.9551 113.301 29.9551C113.469 29.9551 113.59 29.8973 113.664 29.7816C113.737 29.666 113.774 29.4663 113.774 29.1825V26.9279C113.774 25.9188 113.732 25.2514 113.648 24.9255C113.564 24.5892 113.406 24.421 113.175 24.421C113.028 24.421 112.902 24.4735 112.797 24.5786C112.891 25.6192 112.938 26.4549 112.938 27.0855ZM107.042 34.0702C105.318 32.4094 104.456 30.16 104.456 27.322C104.456 24.4735 105.265 22.2294 106.884 20.5897C108.513 18.9394 110.647 18.1143 113.285 18.1143C115.924 18.1143 118.057 18.971 119.687 20.6843C121.305 22.3976 122.115 24.6312 122.115 27.3851C122.115 30.1285 121.332 32.3095 119.765 33.9283C118.21 35.547 116.092 36.3563 113.411 36.3563C110.731 36.3563 108.608 35.5943 107.042 34.0702Z" fill="#F3B526"/>
<path d="M103.1 28.0631C103.1 28.8199 103.184 29.4295 103.352 29.892C103.52 30.3545 103.815 30.7171 104.235 30.9799C104.246 31.0324 104.251 31.1323 104.251 31.2795V31.5633C104.251 33.0138 103.831 34.1437 102.99 34.9531C102.159 35.7519 101.082 36.1514 99.7575 36.1514C98.4436 36.1514 97.3768 35.7782 96.5569 35.0319C95.6004 34.1805 95.1221 32.8877 95.1221 31.1533C95.1221 30.4176 95.1537 29.7711 95.2167 29.214C95.2903 28.6464 95.3376 28.2418 95.3586 28C95.3902 27.7582 95.4217 27.5323 95.4532 27.322C95.4848 27.1118 95.5005 26.8017 95.5005 26.3918C95.5005 25.9819 95.4427 25.6876 95.3271 25.5089C95.222 25.3302 95.0696 25.2408 94.8699 25.2408C94.6807 25.2408 94.5125 25.2829 94.3653 25.367L94.5703 27.9369C94.3811 28.9986 94.2865 30.1232 94.2865 31.311C94.2865 32.4987 94.5545 33.5814 95.0906 34.5589C94.0605 35.6205 92.6152 36.1514 90.7548 36.1514C89.6931 36.1514 88.7734 35.8728 87.9956 35.3157C87.0917 34.6851 86.6397 33.8494 86.6397 32.8088V25.1778C86.0195 24.3054 85.7094 23.2332 85.7094 21.9614C85.7094 20.679 86.0195 19.5701 86.6397 18.6346H89.4461C90.1924 18.6346 90.8283 18.9132 91.3539 19.4703C90.8914 19.9012 90.6602 20.2586 90.6602 20.5424C90.6602 20.8682 90.8441 21.0311 91.212 21.0311C91.6745 20.2323 92.3787 19.5701 93.3247 19.0446C94.2812 18.519 95.3639 18.2562 96.5727 18.2562C98.3911 18.2562 99.8679 18.7029 101.003 19.5964C102.433 20.7211 103.147 22.4659 103.147 24.8309L103.1 28.0631Z" fill="#F3B526"/>
<path d="M84.6058 28.0631C84.6058 28.8199 84.6899 29.4295 84.8581 29.892C85.0262 30.3545 85.3206 30.7171 85.741 30.9799C85.7515 31.0324 85.7568 31.1323 85.7568 31.2795V31.5633C85.7568 33.0558 85.3048 34.2173 84.4008 35.0477C83.602 35.7835 82.6139 36.1514 81.4367 36.1514C80.6379 36.1514 79.9073 35.9622 79.2451 35.5837C78.5829 35.2054 78.1099 34.6588 77.8261 33.944C77.4688 33.944 77.2901 34.1175 77.2901 34.4643C77.2901 34.7586 77.474 35.0897 77.8419 35.4576C77.1587 35.9201 76.1286 36.1514 74.7517 36.1514C72.8071 36.1514 71.2515 35.6258 70.0847 34.5747C68.9285 33.5131 68.3504 32.0363 68.3504 30.1443C68.3504 28.2418 68.9653 26.7702 70.1951 25.7296C71.3198 24.7941 72.7756 24.3264 74.5625 24.3264C75.1721 24.3264 75.7607 24.3684 76.3283 24.4525C76.7067 24.5261 76.9117 24.5681 76.9432 24.5786C76.9748 24.4735 76.9905 24.3842 76.9905 24.3106C76.9905 24.0373 76.7593 23.8534 76.2968 23.7588C75.8343 23.6642 75.2299 23.6169 74.4836 23.6169C72.8964 23.6169 71.5405 23.9375 70.4158 24.5786C69.9008 23.7062 69.6433 22.6026 69.6433 21.2676C69.6433 20.5109 69.7379 19.9485 69.9271 19.5806C70.6839 19.2338 71.6456 18.9289 72.8124 18.6662C73.9791 18.3929 75.2089 18.2562 76.5018 18.2562C79.1716 18.2562 81.1897 18.8396 82.5561 20.0063C83.9226 21.173 84.6058 22.8285 84.6058 24.9728V28.0631ZM76.4229 28.8356C75.9815 28.8356 75.7607 29.0353 75.7607 29.4348C75.7607 29.8132 76.0182 30.0024 76.5333 30.0024C76.8907 30.0024 77.1534 29.9183 77.3216 29.7501C77.4898 29.5714 77.5739 29.2666 77.5739 28.8356C77.5739 28.8356 77.1902 28.8356 76.4229 28.8356Z" fill="#F3B526"/>
<path d="M62.7375 36.1513C61.2974 36.1513 60.1675 35.9148 59.3476 35.4418C58.4647 34.9478 57.9864 34.2488 57.9129 33.3449L57.771 31.8628C58.738 31.6316 59.5526 31.0324 60.2148 30.0654C60.3935 29.7921 60.4828 29.5556 60.4828 29.3559C60.4828 29.0826 60.3462 28.946 60.0729 28.946H60.0256C60.0151 28.9565 59.9941 28.9618 59.9625 28.9618C59.2268 30.5069 58.0337 31.2795 56.3835 31.2795C55.5426 31.2795 54.8226 31.0955 54.2235 30.7276C53.6349 30.3597 53.0935 29.7238 52.5995 28.8199H52.5049C52.2211 28.8199 52.0792 28.9407 52.0792 29.1825C52.0792 29.3507 52.1423 29.5399 52.2684 29.7501C52.6889 30.4543 53.2144 31.0062 53.8451 31.4056C54.3391 31.7419 54.8594 31.9417 55.406 32.0047L55.2798 34.9846C54.6492 35.3946 53.9817 35.6889 53.2775 35.8675C52.5838 36.0567 51.5905 36.1513 50.2976 36.1513C49.0152 36.1513 47.8695 35.8991 46.8605 35.3946C45.6202 34.7744 45 33.9125 45 32.8088C45 31.4319 45.2733 28.0315 45.8199 22.6078C46.1142 19.7803 46.3507 17.8042 46.5294 16.6796C47.612 15.7125 49.2097 15.229 51.3224 15.229C52.857 15.229 54.1289 15.5128 55.1379 16.0804L56.0051 18.9815L55.4533 21.2992C55.4112 21.4568 55.3902 21.6093 55.3902 21.7564C55.3902 22.1243 55.6004 22.3135 56.0209 22.324L57.5187 16.0962C57.9497 15.8649 58.512 15.6652 59.2057 15.4971C59.8995 15.3184 60.6563 15.229 61.4761 15.229C63.0107 15.229 64.1459 15.4918 64.8817 16.0174C65.628 16.5324 66.0695 17.4048 66.2061 18.6346C66.2377 18.8659 66.285 19.2495 66.348 19.7856C67.3045 28.0053 67.7828 32.8456 67.7828 34.3067C66.6161 35.5364 64.9343 36.1513 62.7375 36.1513Z" fill="#F3B526"/>
<defs>
<clipPath id="clip0_2_225">
<rect width="37" height="56" fill="white"/>
</clipPath>
</defs>
</svg>
