<svg width="117" height="174" viewBox="0 0 117 174" fill="none" xmlns="http://www.w3.org/2000/svg">
<g clip-path="url(#clip0_2_272)">
<path d="M14.382 37.3521C14.3099 36.9819 15.2583 36.4883 15.0947 35.9893C14.9477 35.5423 14.0159 35.5423 13.6221 35.4327C11.1013 34.7417 8.56665 33.7326 7.32704 31.2017C6.12903 28.7503 7.352 26.8665 10.1252 26.6252C11.0431 26.5457 11.9721 26.6252 12.8956 26.6087C13.245 26.6032 13.7053 26.7047 13.8218 26.2276C13.9189 25.8327 13.5334 25.7011 13.2672 25.5338C8.50286 22.5834 5.14456 18.3634 2.63761 13.5099C1.17615 10.6774 0.0696567 7.63094 0.000327476 4.35418C-0.024631 3.09832 0.233274 1.74648 1.29817 1.09387C3.26712 -0.112632 5.41078 -0.559588 7.51284 1.00613C10.2694 3.05993 12.976 5.18776 15.8268 7.10446C19.2184 9.38585 23.0592 10.6637 27.0581 11.5164C31.9556 12.5584 36.9334 13.0767 41.9112 12.978C45.3832 12.9094 48.8303 13.0547 52.2857 13.1617C57.5297 13.3207 62.6518 14.1406 67.6352 15.8544C72.8487 17.6449 77.4549 20.1375 81.4788 23.3128C82.6269 24.2204 94.9426 33.6777 93.1733 37.1245C91.0352 41.2897 72.9596 27.6425 50.4942 32.7564C37.2967 35.7617 32.574 36.3869 23.123 37.6373C23.123 37.6373 14.6538 38.7588 14.382 37.3576V37.3521Z" fill="#F3B526"/>
<path d="M55.4717 129.869C56.0818 110.702 70.286 98.747 85.0226 97.0332C86.0736 96.9098 87.1524 96.9564 88.1923 96.7754C90.6272 96.3504 92.377 97.4472 94.1214 98.9526C100.622 104.566 104.343 111.733 106.473 119.864C107.998 125.693 108.259 131.663 108.686 137.618C109.149 144.07 109.119 150.607 111.196 156.826C112.064 159.429 113.489 161.85 114.718 164.329C115.1 165.099 115.713 165.755 116.151 166.503C117.86 169.421 116.967 172.259 113.705 173.26C111.731 173.866 109.526 174.088 107.455 173.97C95.8296 173.32 85.3831 169.237 75.8184 162.845C68.0397 157.646 62.0053 150.934 58.3336 142.296C56.3619 137.654 55.4051 132.806 55.4689 129.869H55.4717Z" fill="#F3B526"/>
<path d="M26.3146 94.9574C18.2087 94.9108 12.1465 88.8427 12.2131 80.8496C12.2741 73.6023 18.7522 67.4793 26.3146 67.5122C33.5637 67.5451 39.77 74.1178 39.7174 81.7078C39.6647 89.3801 33.9769 95.0013 26.3146 94.9574Z" fill="#E76423"/>
<path d="M89.4541 65.1321C93.2201 71.2112 92.4297 78.8259 87.5129 83.8082C82.9483 88.4314 76.032 89.0319 70.9044 85.2396C70.5023 84.9407 69.9809 84.6555 69.7979 84.2415C69.4873 83.5423 69.0602 82.5825 69.3265 82.0396C69.5816 81.5214 70.6493 81.3788 71.3731 81.1073C71.5228 81.0497 71.7336 81.1512 71.9166 81.1731C73.8966 81.4117 74.7036 80.4958 74.0741 78.5928C73.6165 77.2136 72.9565 75.9002 72.449 74.5346C71.1124 70.9343 71.2594 67.3504 72.8622 63.8845C74.7175 59.8701 78.6665 58.2907 82.8873 59.7522C85.7464 60.7421 87.8928 62.5929 89.4569 65.1348L89.4541 65.1321Z" fill="#F3B526"/>
<path d="M47.0774 52.1293C45.7379 52.1347 44.4539 52.5844 43.3502 53.333C44.2099 54.0185 44.7812 55.0907 44.7756 56.2561C44.7673 58.2386 43.2421 59.8482 41.3729 59.8427C40.8682 59.8427 40.3857 59.7165 39.9448 59.5026C39.9448 59.5438 39.9448 59.5822 39.9448 59.6206C39.9725 63.8461 43.4001 67.4436 47.4129 67.4574C51.3425 67.4711 54.5566 64.0819 54.5732 59.9057C54.5899 55.7296 51.1012 52.1101 47.0774 52.1293Z" fill="#38332E"/>
</g>
<defs>
<clipPath id="clip0_2_272">
<rect width="117" height="174" fill="white"/>
</clipPath>
</defs>
</svg>
