<svg width="24" height="24" viewBox="0 0 24 24" fill="none" xmlns="http://www.w3.org/2000/svg">
<path d="M11.296 4.45407C11.4009 4.55858 11.4841 4.68277 11.5409 4.81952C11.5976 4.95626 11.6269 5.10287 11.6269 5.25094C11.6269 5.39901 11.5976 5.54561 11.5409 5.68236C11.4841 5.81911 11.4009 5.9433 11.296 6.04782L6.46879 10.875L20.25 10.875C20.5484 10.875 20.8346 10.9935 21.0455 11.2045C21.2565 11.4155 21.375 11.7016 21.375 12C21.375 12.2984 21.2565 12.5845 21.0455 12.7955C20.8346 13.0065 20.5484 13.125 20.25 13.125L6.46879 13.125L11.296 17.9541C11.5073 18.1654 11.6261 18.4521 11.6261 18.7509C11.6261 19.0498 11.5073 19.3365 11.296 19.5478C11.0846 19.7592 10.798 19.8779 10.4991 19.8779C10.2002 19.8779 9.91357 19.7592 9.70223 19.5478L2.95223 12.7978C2.84735 12.6933 2.76413 12.5691 2.70735 12.4324C2.65057 12.2956 2.62134 12.149 2.62134 12.0009C2.62134 11.8529 2.65057 11.7063 2.70735 11.5695C2.76413 11.4328 2.84735 11.3086 2.95223 11.2041L9.70223 4.45407C9.80674 4.34919 9.93093 4.26597 10.0677 4.20919C10.2044 4.15241 10.351 4.12318 10.4991 4.12318C10.6472 4.12318 10.7938 4.15241 10.9305 4.20919C11.0673 4.26597 11.1915 4.34919 11.296 4.45407Z" fill="#38332E"/>
</svg>
